<svg id="visual" viewBox="0 0 900 600" width="900" height="600" xmlns="http://www.w3.org/2000/svg" xmlns:xlink="http://www.w3.org/1999/xlink" version="1.1"><path d="M0 85L13.7 85C27.3 85 54.7 85 82 81C109.3 77 136.7 69 163.8 65C191 61 218 61 245.2 66C272.3 71 299.7 81 327 84C354.3 87 381.7 83 409 78C436.3 73 463.7 67 491 66C518.3 65 545.7 69 573 67C600.3 65 627.7 57 654.8 55C682 53 709 57 736.2 59C763.3 61 790.7 61 818 65C845.3 69 872.7 77 886.3 81L900 85L900 0L886.3 0C872.7 0 845.3 0 818 0C790.7 0 763.3 0 736.2 0C709 0 682 0 654.8 0C627.7 0 600.3 0 573 0C545.7 0 518.3 0 491 0C463.7 0 436.3 0 409 0C381.7 0 354.3 0 327 0C299.7 0 272.3 0 245.2 0C218 0 191 0 163.8 0C136.7 0 109.3 0 82 0C54.7 0 27.3 0 13.7 0L0 0Z" fill="#242424"></path><path d="M0 265L13.7 260C27.3 255 54.7 245 82 242C109.3 239 136.7 243 163.8 239C191 235 218 223 245.2 229C272.3 235 299.7 259 327 256C354.3 253 381.7 223 409 206C436.3 189 463.7 185 491 190C518.3 195 545.7 209 573 217C600.3 225 627.7 227 654.8 228C682 229 709 229 736.2 227C763.3 225 790.7 221 818 228C845.3 235 872.7 253 886.3 262L900 271L900 83L886.3 79C872.7 75 845.3 67 818 63C790.7 59 763.3 59 736.2 57C709 55 682 51 654.8 53C627.7 55 600.3 63 573 65C545.7 67 518.3 63 491 64C463.7 65 436.3 71 409 76C381.7 81 354.3 85 327 82C299.7 79 272.3 69 245.2 64C218 59 191 59 163.8 63C136.7 67 109.3 75 82 79C54.7 83 27.3 83 13.7 83L0 83Z" fill="#1f1f1f"></path><path d="M0 373L13.7 364C27.3 355 54.7 337 82 336C109.3 335 136.7 351 163.8 353C191 355 218 343 245.2 343C272.3 343 299.7 355 327 351C354.3 347 381.7 327 409 312C436.3 297 463.7 287 491 287C518.3 287 545.7 297 573 302C600.3 307 627.7 307 654.8 309C682 311 709 315 736.2 316C763.3 317 790.7 315 818 330C845.3 345 872.7 377 886.3 393L900 409L900 269L886.3 260C872.7 251 845.3 233 818 226C790.7 219 763.3 223 736.2 225C709 227 682 227 654.8 226C627.7 225 600.3 223 573 215C545.7 207 518.3 193 491 188C463.7 183 436.3 187 409 204C381.7 221 354.3 251 327 254C299.7 257 272.3 233 245.2 227C218 221 191 233 163.8 237C136.7 241 109.3 237 82 240C54.7 243 27.3 253 13.7 258L0 263Z" fill="#1a1a1a"></path><path d="M0 511L13.7 509C27.3 507 54.7 503 82 501C109.3 499 136.7 499 163.8 501C191 503 218 507 245.2 513C272.3 519 299.7 527 327 525C354.3 523 381.7 511 409 505C436.3 499 463.7 499 491 504C518.3 509 545.7 519 573 521C600.3 523 627.7 517 654.8 515C682 513 709 515 736.2 515C763.3 515 790.7 513 818 515C845.3 517 872.7 523 886.3 526L900 529L900 407L886.3 391C872.7 375 845.3 343 818 328C790.7 313 763.3 315 736.2 314C709 313 682 309 654.8 307C627.7 305 600.3 305 573 300C545.7 295 518.3 285 491 285C463.7 285 436.3 295 409 310C381.7 325 354.3 345 327 349C299.7 353 272.3 341 245.2 341C218 341 191 353 163.8 351C136.7 349 109.3 333 82 334C54.7 335 27.3 353 13.7 362L0 371Z" fill="#151515"></path><path d="M0 601L13.7 601C27.3 601 54.7 601 82 601C109.3 601 136.7 601 163.8 601C191 601 218 601 245.2 601C272.3 601 299.7 601 327 601C354.3 601 381.7 601 409 601C436.3 601 463.7 601 491 601C518.3 601 545.7 601 573 601C600.3 601 627.7 601 654.8 601C682 601 709 601 736.2 601C763.3 601 790.7 601 818 601C845.3 601 872.7 601 886.3 601L900 601L900 527L886.3 524C872.7 521 845.3 515 818 513C790.7 511 763.3 513 736.2 513C709 513 682 511 654.8 513C627.7 515 600.3 521 573 519C545.7 517 518.3 507 491 502C463.7 497 436.3 497 409 503C381.7 509 354.3 521 327 523C299.7 525 272.3 517 245.2 511C218 505 191 501 163.8 499C136.7 497 109.3 497 82 499C54.7 501 27.3 505 13.7 507L0 509Z" fill="#101010"></path></svg>